# xmcd CD database file
# Copyright (C) 1995 Ti Kan
#
# Track frame offsets:
#	150
#	12949
#	26992
#	41628
#	53901
#	66550
#	80095
#	105190
#	120215
#	132981
#
# Disc length: 1959 seconds
#
# Revision: 1
# Processed by: cddbd v1.4PL0 Copyright (c) Steve Scherf et al.
# Submitted via: NotifyCDPlayer 1.60beta16
#
DISCID=8307a50a
DTITLE=Various Artist - Blacks Blues and Dreams - Jazz Collection special Martin Luth
DTITLE=er King
DYEAR=1900
DGENRE=
TTITLE0=Big Bill Broonzy - Just a Dream
TTITLE1=Big Bill Broonzy - Black, Brown and White
TTITLE2=Gus Cannon's Jug Stompers - Feather Bed
TTITLE3=Gus Cannon - Can You Blame the Coloured Man
TTITLE4=Reverend J. M. Gates - Somebody's Been Stealin'
TTITLE5=Paul Robeson - Sometimes I Feel Like a Motherless Child
TTITLE6=Leadbelly - The Bourgeois Blues
TTITLE7=Josh White and His Carolinians
TTITLE8=Tommy McClennan - Bottle It Up and Go
TTITLE9=Billie Holliday - Strange Fruit
EXTD=
EXTT0=
EXTT1=
EXTT2=
EXTT3=
EXTT4=
EXTT5=
EXTT6=
EXTT7=
EXTT8=
EXTT9=
PLAYORDER=
